PathFileType	4	(X/Y/Z)	C:/Users/opensim2020/Desktop/walking_exp_matlab/subject01_walking07_straight_01.trc	
DataRate	CameraRate	NumFrames	NumMarkers	Units	OrigDataRate	OrigDataStartFrame	OrigNumFrames	
100.00	100.00	4	43	mm	100.00	760	282	
Frame#	Time	LFHD			RFHD			LBHD			RBHD			C7			T10			CLAV			STRN			RBAK			LSHO			LUPA			LELB			LFRM			LWRA			LWRB			LFIN			RSHO			RUPA			RELB			RFRM			RWRA			RWRB			RFIN			LASI			RASI			LPSI			RPSI			LTHI			LKNE			LTIB			LANK			LHEE			LTOE			RTHI			RKNE			RTIB			RANK			RHEE			RTOE			*39			*40			*41			*42			
		X1	Y1	Z1	X2	Y2	Z2	X3	Y3	Z3	X4	Y4	Z4	X5	Y5	Z5	X6	Y6	Z6	X7	Y7	Z7	X8	Y8	Z8	X9	Y9	Z9	X10	Y10	Z10	X11	Y11	Z11	X12	Y12	Z12	X13	Y13	Z13	X14	Y14	Z14	X15	Y15	Z15	X16	Y16	Z16	X17	Y17	Z17	X18	Y18	Z18	X19	Y19	Z19	X20	Y20	Z20	X21	Y21	Z21	X22	Y22	Z22	X23	Y23	Z23	X24	Y24	Z24	X25	Y25	Z25	X26	Y26	Z26	X27	Y27	Z27	X28	Y28	Z28	X29	Y29	Z29	X30	Y30	Z30	X31	Y31	Z31	X32	Y32	Z32	X33	Y33	Z33	X34	Y34	Z34	X35	Y35	Z35	X36	Y36	Z36	X37	Y37	Z37	X38	Y38	Z38	X39	Y39	Z39	X40	Y40	Z40	X41	Y41	Z41	X42	Y42	Z42	X43	Y43	Z43	

106	1.050	1441.04834	-687.51678	1656.83350	1550.86682	-655.77704	1665.81848	1468.98584	-796.43658	1601.18018	1585.55676	-765.60004	1609.45227	1500.45544	-818.39203	1416.25708	1500.06372	-855.31604	1123.89380	1496.86804	-673.71936	1350.54431	1492.19165	-632.07391	1194.78577	1577.49573	-873.06348	1223.22913	1336.83850	-734.82672	1382.70276	1254.01904	-794.98566	1203.92505	1259.50525	-838.96484	1059.39612	1237.84790	-822.72662	945.45502	1261.38269	-769.02814	816.84265	1234.79211	-823.41583	823.16010	1231.46143	-790.54407	743.71289	1649.59143	-734.68958	1378.58862	1754.99500	-776.59302	1179.92456	1766.58850	-758.85181	1054.24048	1794.85596	-691.08411	951.37964	1771.94031	-574.38629	874.14667	1811.63013	-613.81354	857.63922	1810.40234	-549.03589	803.66724	1398.41040	-679.01471	915.50079	1616.66223	-693.63269	917.04913	1434.65479	-867.86011	930.62982	1578.32227	-876.55493	942.53650	1339.24243	-639.74207	595.47607	1363.45313	-613.64661	466.88065	1357.80005	-612.12946	279.29889	1410.30261	-563.05768	66.77283	1466.69275	-595.01221	31.08164	1395.64319	-416.25995	59.66890	1668.06372	-819.53131	599.80469	1646.40649	-853.03278	440.89514	1643.59106	-964.77576	302.23242	1593.02087	-1055.68567	113.59222	1538.93555	-1109.33301	96.34662	1595.15808	-937.07123	29.41215	1530.65417	-674.59222	1697.68591	-3101.91577	1973.11096	1023.27777	-3140.74341	2012.49866	1021.94720			 
107	1.060	1439.08081	-678.77136	1657.08765	1548.98157	-647.39203	1666.15967	1466.64575	-787.34277	1600.47131	1583.29285	-756.82495	1608.68250	1498.01648	-808.82324	1415.89478	1499.07813	-844.71930	1123.30798	1494.60059	-663.56665	1350.23047	1490.42664	-621.14587	1194.59949	1575.68420	-862.69714	1222.80676	1334.47729	-725.06500	1381.85120	1252.38770	-784.45599	1202.38660	1258.55750	-827.63623	1057.53650	1236.93628	-811.33679	943.69440	1260.71069	-757.40100	815.29333	1234.08386	-811.89032	821.41797	1230.87891	-778.88586	742.06403	1647.47937	-724.65533	1378.42944	1753.38025	-767.16833	1180.04565	1765.16125	-750.21246	1054.22351	1793.85522	-683.37622	950.84229	1771.20618	-567.45880	872.39172	1810.95935	-607.09900	856.35553	1809.81592	-542.91473	801.72296	1397.43591	-668.10437	915.19238	1615.66943	-682.29547	916.43848	1433.48059	-857.08606	930.03589	1577.53979	-865.45319	941.93799	1340.19482	-629.15546	595.09576	1363.37463	-602.92285	466.90848	1359.19690	-604.39978	279.29187	1410.06653	-559.69104	66.83205	1466.26904	-593.31085	32.24118	1395.63440	-413.48267	54.50590	1667.70850	-808.36670	599.17291	1646.55371	-842.49231	440.22028	1643.70227	-957.43860	304.01892	1594.19189	-1052.33081	117.21896	1540.39990	-1106.46338	102.15744	1595.26904	-936.62531	29.29007	1528.75745	-666.52454	1697.62891	-3102.02417	1972.98926	1023.84003	-3140.68604	2012.48181	1022.04553			 
108	1.070	1437.07520	-670.04254	1657.81836	1547.15857	-638.79285	1666.82349	1464.36084	-777.96747	1600.09888	1581.03394	-747.90161	1608.45203	1495.64685	-798.81970	1416.01794	1498.28857	-834.28528	1123.47546	1492.46741	-653.31805	1350.46399	1488.49841	-610.75140	1194.90674	1573.62866	-852.36322	1222.63147	1332.11816	-715.24280	1381.19397	1250.74841	-773.60040	1200.90588	1257.22388	-816.00854	1056.00281	1235.87610	-799.52228	942.07672	1260.02710	-745.61499	813.68079	1233.36047	-799.95850	819.77069	1230.19934	-766.81805	740.61798	1645.40112	-714.64709	1378.50610	1751.66931	-757.70709	1180.31689	1763.57532	-741.73291	1054.36365	1792.76343	-675.98865	950.41150	1770.40808	-560.85895	870.54260	1810.30615	-600.60406	855.19037	1809.17615	-537.25323	799.73730	1396.47217	-657.26746	915.02899	1614.60376	-670.96655	916.04773	1432.35840	-846.23120	929.88708	1576.67004	-854.17621	941.15106	1340.74548	-619.10913	595.61261	1362.78479	-592.04645	468.05783	1359.20886	-596.02557	280.29501	1409.06030	-556.34467	66.54086	1465.27222	-591.39526	33.40665	1395.60437	-410.49231	50.31271	1667.16797	-796.45624	598.46136	1646.47229	-830.78528	439.56006	1643.80518	-949.32196	306.23752	1595.39294	-1048.49878	121.80920	1541.54590	-1102.72351	108.31857	1595.48474	-936.09814	29.36384	1526.87708	-658.38519	1698.14539	-3101.97925	1973.20532	1023.30725	-3140.55933	2012.49976	1021.97968			 
109	1.080	1435.04614	-661.02930	1658.60059	1545.07190	-630.18433	1667.68250	1461.97205	-768.84003	1600.31116	1578.74963	-738.86841	1608.53857	1493.46802	-788.32483	1416.61804	1497.32483	-823.65253	1123.53442	1490.32568	-643.11792	1351.01917	1486.47693	-600.37854	1195.52026	1571.53638	-842.05322	1222.85901	1329.85974	-705.31421	1380.89343	1249.10144	-762.41687	1199.74133	1255.78882	-804.06049	1054.67822	1234.69995	-787.30078	940.63672	1258.80835	-732.91071	812.51257	1232.43420	-787.55536	818.37561	1229.29602	-754.19696	739.50562	1643.30359	-704.54645	1378.86682	1749.79126	-748.36285	1180.83667	1761.82361	-733.43140	1054.82703	1791.46631	-668.83746	950.09094	1769.51514	-554.69653	868.73096	1809.46814	-594.61597	854.09869	1808.48486	-532.18054	797.72351	1395.58984	-646.36871	915.21704	1613.51501	-659.63232	915.97711	1431.44409	-835.35724	930.35657	1576.08740	-843.00830	940.67334	1340.77478	-609.11243	596.64777	1362.23413	-581.38287	469.91205	1357.68054	-587.29333	281.64679	1408.25867	-553.67133	66.65057	1464.47754	-590.05676	34.64624	1395.21362	-408.49356	46.10156	1666.56104	-783.54541	597.91858	1646.43286	-817.63611	438.95929	1643.67480	-940.01270	308.67288	1596.33191	-1043.83557	126.76087	1542.36096	-1098.03137	115.53080	1595.49866	-935.48450	29.35139	1524.95618	-650.01532	1698.97705	-3101.90283	1973.15076	1023.40063	-3140.77246	2012.48022	1021.90399			 
